<svg xmlns="http://www.w3.org/2000/svg" width="1440" height="920" viewBox="0 0 1440 920" role="img" aria-labelledby="title desc">
  <title id="title">FieldOps Margin Control innovative cockpit preview</title>
  <desc id="desc">Dark operations cockpit with margin heatmap, project constellation, SLA queue, automation suggestions and work-order timeline.</desc>
  <defs>
    <radialGradient id="glowGreen" cx="50%" cy="50%" r="50%">
      <stop offset="0%" stop-color="#24d17e" stop-opacity=".78"/>
      <stop offset="100%" stop-color="#24d17e" stop-opacity=".05"/>
    </radialGradient>
    <radialGradient id="glowRed" cx="50%" cy="50%" r="50%">
      <stop offset="0%" stop-color="#ff5d4f" stop-opacity=".82"/>
      <stop offset="100%" stop-color="#ff5d4f" stop-opacity=".06"/>
    </radialGradient>
    <linearGradient id="panel" x1="0" x2="1">
      <stop stop-color="#0d1c1f" stop-opacity=".96"/>
      <stop offset="1" stop-color="#112528" stop-opacity=".84"/>
    </linearGradient>
  </defs>
  <rect width="1440" height="920" fill="#071011"/>
  <g stroke="#22d3ee" stroke-opacity=".07">
    <path d="M0 60h1440M0 120h1440M0 180h1440M0 240h1440M0 300h1440M0 360h1440M0 420h1440M0 480h1440M0 540h1440M0 600h1440M0 660h1440M0 720h1440M0 780h1440M0 840h1440"/>
    <path d="M60 0v920M120 0v920M180 0v920M240 0v920M300 0v920M360 0v920M420 0v920M480 0v920M540 0v920M600 0v920M660 0v920M720 0v920M780 0v920M840 0v920M900 0v920M960 0v920M1020 0v920M1080 0v920M1140 0v920M1200 0v920M1260 0v920M1320 0v920M1380 0v920"/>
  </g>
  <rect x="18" y="18" width="218" height="884" rx="18" fill="#071214" stroke="#263d40"/>
  <rect x="38" y="38" width="42" height="42" rx="12" fill="#24d17e"/>
  <text x="96" y="55" fill="#ecfeff" font-family="Arial, sans-serif" font-size="20" font-weight="700">FieldOps</text>
  <text x="96" y="73" fill="#8fa7aa" font-family="Arial, sans-serif" font-size="10" font-weight="700">MARGIN CONTROL</text>
  <rect x="36" y="112" width="182" height="42" rx="10" fill="#b8f24a"/>
  <text x="58" y="139" fill="#071011" font-family="Arial, sans-serif" font-size="13" font-weight="700">Cockpit</text>
  <g fill="#c5d7d8" font-family="Arial, sans-serif" font-size="13" font-weight="700">
    <text x="58" y="192">Margin Heatmap</text>
    <text x="58" y="238">SLA Queue</text>
    <text x="58" y="284">Crew Load</text>
    <text x="58" y="330">Material Risk</text>
    <text x="58" y="376">Billing Pulse</text>
  </g>
  <rect x="258" y="18" width="1164" height="74" rx="18" fill="#091416" stroke="#263d40"/>
  <text x="282" y="45" fill="#22d3ee" font-family="Arial, sans-serif" font-size="11" font-weight="700">OPERATIONS COCKPIT</text>
  <text x="282" y="72" fill="#ecfeff" font-family="Arial, sans-serif" font-size="27" font-weight="700">Field margin command center</text>
  <rect x="1070" y="35" width="134" height="38" rx="10" fill="#102225" stroke="#314b4f"/>
  <text x="1100" y="59" fill="#ecfeff" font-family="Arial, sans-serif" font-size="13" font-weight="700">All companies</text>
  <rect x="1220" y="35" width="150" height="38" rx="10" fill="#24d17e"/>
  <text x="1250" y="59" fill="#03120d" font-family="Arial, sans-serif" font-size="13" font-weight="700">Auto Dispatch</text>
  <rect x="258" y="112" width="828" height="504" rx="22" fill="url(#panel)" stroke="#314b4f"/>
  <text x="282" y="144" fill="#22d3ee" font-family="Arial, sans-serif" font-size="11" font-weight="700">MARGIN HEATMAP</text>
  <text x="282" y="178" fill="#ecfeff" font-family="Arial, sans-serif" font-size="30" font-weight="700">Project risk constellation</text>
  <g>
    <rect x="282" y="210" width="126" height="80" rx="14" fill="#102225" stroke="#263d40"/>
    <rect x="420" y="210" width="126" height="80" rx="14" fill="#102225" stroke="#263d40"/>
    <rect x="558" y="210" width="126" height="80" rx="14" fill="#102225" stroke="#263d40"/>
    <rect x="696" y="210" width="126" height="80" rx="14" fill="#102225" stroke="#263d40"/>
    <rect x="834" y="210" width="126" height="80" rx="14" fill="#102225" stroke="#263d40"/>
    <rect x="972" y="210" width="92" height="80" rx="14" fill="#102225" stroke="#263d40"/>
    <g font-family="Arial, sans-serif">
      <text x="300" y="236" fill="#8fa7aa" font-size="11" font-weight="700">Total margin</text><text x="300" y="267" fill="#ecfeff" font-size="24" font-weight="700">12.8%</text>
      <text x="438" y="236" fill="#8fa7aa" font-size="11" font-weight="700">Risk</text><text x="438" y="267" fill="#ecfeff" font-size="24" font-weight="700">$523k</text>
      <text x="576" y="236" fill="#8fa7aa" font-size="11" font-weight="700">Crew Load</text><text x="576" y="267" fill="#ecfeff" font-size="24" font-weight="700">67%</text>
      <text x="714" y="236" fill="#8fa7aa" font-size="11" font-weight="700">Orders</text><text x="714" y="267" fill="#ecfeff" font-size="24" font-weight="700">6</text>
      <text x="852" y="236" fill="#8fa7aa" font-size="11" font-weight="700">Materials</text><text x="852" y="267" fill="#ecfeff" font-size="24" font-weight="700">4</text>
      <text x="990" y="236" fill="#8fa7aa" font-size="11" font-weight="700">Billing</text><text x="990" y="267" fill="#ecfeff" font-size="22" font-weight="700">$434k</text>
    </g>
  </g>
  <rect x="282" y="318" width="782" height="268" rx="18" fill="#081315" stroke="#244146"/>
  <ellipse cx="670" cy="452" rx="286" ry="110" fill="none" stroke="#22d3ee" stroke-opacity=".22"/>
  <ellipse cx="670" cy="452" rx="190" ry="72" fill="none" stroke="#b8f24a" stroke-opacity=".22" stroke-dasharray="6 8"/>
  <circle cx="430" cy="410" r="48" fill="url(#glowGreen)" stroke="#24d17e"/>
  <circle cx="600" cy="380" r="60" fill="url(#glowRed)" stroke="#ff5d4f"/>
  <circle cx="780" cy="430" r="42" fill="url(#glowGreen)" stroke="#24d17e"/>
  <circle cx="545" cy="515" r="54" fill="url(#glowRed)" stroke="#ff5d4f"/>
  <circle cx="840" cy="520" r="44" fill="url(#glowGreen)" stroke="#24d17e"/>
  <text x="400" y="416" fill="#ecfeff" font-family="Arial" font-size="16" font-weight="700">15.2%</text>
  <text x="570" y="386" fill="#ecfeff" font-family="Arial" font-size="16" font-weight="700">9.9%</text>
  <text x="515" y="521" fill="#ecfeff" font-family="Arial" font-size="16" font-weight="700">5.5%</text>
  <rect x="1108" y="112" width="314" height="504" rx="22" fill="url(#panel)" stroke="#314b4f"/>
  <text x="1132" y="144" fill="#22d3ee" font-family="Arial" font-size="11" font-weight="700">DECISION QUEUE</text>
  <text x="1132" y="176" fill="#ecfeff" font-family="Arial" font-size="22" font-weight="700">SLA Queue</text>
  <g font-family="Arial" font-size="13" font-weight="700">
    <rect x="1132" y="210" width="258" height="62" rx="14" fill="#132528" stroke="#314b4f"/><circle cx="1158" cy="241" r="16" fill="#ff5d4f"/><text x="1188" y="238" fill="#ecfeff">3 SLA delays</text><text x="1188" y="256" fill="#8fa7aa" font-size="11">Dispatch attention</text>
    <rect x="1132" y="286" width="258" height="62" rx="14" fill="#132528" stroke="#314b4f"/><circle cx="1158" cy="317" r="16" fill="#f8b23a"/><text x="1188" y="314" fill="#ecfeff">4 material shortages</text><text x="1188" y="332" fill="#8fa7aa" font-size="11">$145k impact</text>
    <rect x="1132" y="362" width="258" height="62" rx="14" fill="#132528" stroke="#314b4f"/><circle cx="1158" cy="393" r="16" fill="#ff5d4f"/><text x="1188" y="390" fill="#ecfeff">2 over budget</text><text x="1188" y="408" fill="#8fa7aa" font-size="11">Forecast review</text>
    <rect x="1132" y="478" width="258" height="50" rx="14" fill="#102225" stroke="#314b4f"/><text x="1150" y="508" fill="#ecfeff">Auto-reorder materials</text>
    <rect x="1132" y="540" width="258" height="50" rx="14" fill="#102225" stroke="#314b4f"/><text x="1150" y="570" fill="#ecfeff">Send invoice reminders</text>
  </g>
  <rect x="258" y="636" width="1164" height="246" rx="22" fill="url(#panel)" stroke="#314b4f"/>
  <text x="282" y="670" fill="#22d3ee" font-family="Arial" font-size="11" font-weight="700">ACTIVE WORK ORDERS</text>
  <text x="282" y="702" fill="#ecfeff" font-family="Arial" font-size="22" font-weight="700">Open work orders timeline</text>
  <g stroke="#314b4f"><line x1="282" y1="742" x2="1390" y2="742"/><line x1="282" y1="798" x2="1390" y2="798"/><line x1="282" y1="854" x2="1390" y2="854"/></g>
  <g fill="#ecfeff" font-family="Arial" font-size="13" font-weight="700">
    <circle cx="304" cy="770" r="6" fill="#ff5d4f"/><text x="330" y="775">WO-24681 | Riverside Office Buildout</text><text x="680" y="775">In Progress</text><text x="900" y="775">At Risk</text><text x="1140" y="775">$18,750</text>
    <circle cx="304" cy="826" r="6" fill="#ff5d4f"/><text x="330" y="831">WO-24660 | City Center Parking Garage</text><text x="680" y="831">Waiting Parts</text><text x="900" y="831">At Risk</text><text x="1140" y="831">$12,680</text>
  </g>
</svg>
